HIERARCHY
ROOT Hips
{
	OFFSET 0.000000 0.000000 0.000000
	CHANNELS 6 Xposition Yposition Zposition Zrotation Yrotation Xrotation 
	JOINT LeftUpLeg_virtual
	{
		OFFSET 0.000000 0.000000 0.000000
		CHANNELS 3 Zrotation Yrotation Xrotation
		JOINT LeftUpLeg
		{
			OFFSET 10.205400 -3.823500 0.155100
			CHANNELS 3 Zrotation Yrotation Xrotation
			JOINT LeftLeg
			{
				OFFSET 0.708757 -12.982077 0.567790
				CHANNELS 3 Zrotation Yrotation Xrotation
				JOINT LeftFoot
				{
					OFFSET -0.708756 -10.717838 -2.184338
					CHANNELS 3 Zrotation Yrotation Xrotation
					JOINT LeftToeBase
					{
						OFFSET 0.108149 -7.191104 7.560241
						CHANNELS 3 Zrotation Yrotation Xrotation
						End Site
						{
							OFFSET 0.000000 0.000000 0.000000
						}
					}
				}
			}
		}
	}
	JOINT RightUpLeg_virtual
	{
		OFFSET 0.000000 0.000000 0.000000
		CHANNELS 3 Zrotation Yrotation Xrotation
		JOINT RightUpLeg
		{
			OFFSET -10.205400 -3.823500 0.005500
			CHANNELS 3 Zrotation Yrotation Xrotation
			JOINT RightLeg
			{
				OFFSET -0.708756 -12.982134 0.610632
				CHANNELS 3 Zrotation Yrotation Xrotation
				JOINT RightFoot
				{
					OFFSET 0.708754 -10.717769 -1.945823
					CHANNELS 3 Zrotation Yrotation Xrotation
					JOINT RightToeBase
					{
						OFFSET -0.108140 -7.191069 7.372968
						CHANNELS 3 Zrotation Yrotation Xrotation
						End Site
						{
							OFFSET 0.000000 0.000000 0.000000
						}
					}
				}
			}
		}
	}
	JOINT Spine_virtual
	{
		OFFSET 0.000000 0.000000 0.000000
		CHANNELS 3 Zrotation Yrotation Xrotation
		JOINT Spine
		{
			OFFSET 0.000000 6.876099 0.125700
			CHANNELS 3 Zrotation Yrotation Xrotation
			JOINT Spine1
			{
				OFFSET 0.000000 8.022060 0.146608
				CHANNELS 3 Zrotation Yrotation Xrotation
				JOINT Spine2
				{
					OFFSET 0.000000 9.168068 0.167552
					CHANNELS 3 Zrotation Yrotation Xrotation
					JOINT Neck_virtual
					{
						OFFSET 0.000000 0.000000 0.000000
						CHANNELS 3 Zrotation Yrotation Xrotation
						JOINT Neck
						{
							OFFSET 0.000000 10.314075 0.188496
							CHANNELS 3 Zrotation Yrotation Xrotation
							JOINT Head
							{
								OFFSET 0.000000 7.643700 -2.377400
								CHANNELS 3 Zrotation Yrotation Xrotation
								End Site
								{
									OFFSET 0.000000 0.000000 0.000000
								}
							}
						}
					}
					JOINT LeftShoulder_virtual
					{
						OFFSET 0.000000 0.000000 0.000000
						CHANNELS 3 Zrotation Yrotation Xrotation
						JOINT LeftShoulder
						{
							OFFSET 4.392200 8.824978 0.174984
							CHANNELS 3 Zrotation Yrotation Xrotation
							JOINT LeftArm
							{
								OFFSET 8.771219 -2.981674 -0.026999
								CHANNELS 3 Zrotation Yrotation Xrotation
								JOINT LeftForeArm
								{
									OFFSET 8.512804 0.000000 -0.000000
									CHANNELS 3 Zrotation Yrotation Xrotation
									JOINT LeftHand
									{
										OFFSET 18.484802 0.000000 -0.000000
										CHANNELS 3 Zrotation Yrotation Xrotation
										End Site
										{
											OFFSET 0.000000 0.000000 0.000000
										}
									}
								}
							}
						}
					}
					JOINT RightShoulder_virtual
					{
						OFFSET 0.000000 0.000000 0.000000
						CHANNELS 3 Zrotation Yrotation Xrotation
						JOINT RightShoulder
						{
							OFFSET -4.392200 8.824993 0.141379
							CHANNELS 3 Zrotation Yrotation Xrotation
							JOINT RightArm
							{
								OFFSET -8.771282 -2.981682 -0.094208
								CHANNELS 3 Zrotation Yrotation Xrotation
								JOINT RightForeArm
								{
									OFFSET -8.494598 0.000000 0.000000
									CHANNELS 3 Zrotation Yrotation Xrotation
									JOINT RightHand
									{
										OFFSET -18.483803 0.000000 0.000001
										CHANNELS 3 Zrotation Yrotation Xrotation
										End Site
										{
											OFFSET 0.000000 0.000000 0.000000
										}
									}
								}
							}
						}
					}
				}
			}
		}
	}
}
MOTION
Frames: 10
Frame Time: 0.033333
22.714743 35.913773 3.611398 179.954338 -29.854911 179.520785 -1.172642 -3.056541 8.750989 4.371243 -11.721051 -23.044090 9.686865 3.787192 23.623514 -2.185123 3.649303 11.142122 0.000000 0.000000 0.000000 3.288777 -2.329236 7.418116 0.981717 6.129105 -10.796565 -4.856501 1.510574 15.656653 6.723168 5.193952 4.221502 0.000000 0.000000 0.000000 1.042077 -0.016582 -3.056267 2.675862 0.384450 -13.005122 -0.775960 -2.714207 8.758873 0.022553 0.065584 -0.016107 -0.970838 -0.723739 9.042478 -1.581568 1.090662 16.178022 0.000000 0.000000 0.000000 0.765149 -0.204768 6.267871 -6.141498 -11.024242 -0.051174 -24.368585 -26.193244 -4.243074 -9.040590 -72.289807 7.198557 0.000000 0.000000 0.000000 -3.333525 1.140109 5.785295 28.153871 15.467614 1.220379 21.788138 14.820735 4.567890 -8.544684 69.115770 -10.282320 0.000000 0.000000 0.000000 
22.731173 35.916622 3.529494 179.922114 -30.021786 179.525157 -1.264216 -3.086699 8.943198 4.246562 -11.695121 -22.789309 9.656292 3.768916 23.906475 -2.078188 3.704045 11.012187 0.000000 0.000000 0.000000 3.399933 -2.344037 7.310742 1.406137 5.056819 -11.036032 -4.764349 0.793499 15.390940 6.348808 4.623247 4.312139 0.000000 0.000000 0.000000 1.025466 -0.026191 -3.095172 2.631071 0.400238 -13.051508 -0.867524 -2.722824 8.854240 0.002634 0.055642 -0.049993 -1.014146 -0.908763 9.110754 -1.645600 1.061695 16.253566 0.000000 0.000000 0.000000 0.834764 -0.172791 6.242855 -6.202941 -10.949749 0.003999 -24.139878 -25.888575 -5.038911 -8.777604 -72.986705 7.093544 0.000000 0.000000 0.000000 -3.306416 1.128066 5.761564 28.137249 15.347930 1.153473 22.164377 14.602832 4.770933 -8.554814 69.377640 -10.278797 0.000000 0.000000 0.000000 
22.745445 35.915787 3.398252 179.938438 -30.208793 179.481717 -1.324745 -3.023583 9.299532 3.998418 -11.845793 -22.374429 9.596182 3.865753 24.279574 -2.039707 3.664405 10.758677 0.000000 0.000000 0.000000 3.346282 -2.351591 7.613648 1.682109 4.946015 -10.939160 -4.789405 0.600923 15.033123 6.399128 4.385050 4.639648 0.000000 0.000000 0.000000 1.037531 -0.068759 -2.994369 2.560279 0.502685 -13.234811 -0.815553 -2.716206 8.828682 0.002200 0.051134 -0.059134 -1.012924 -0.724156 9.061421 -1.475890 1.088306 16.355807 0.000000 0.000000 0.000000 0.756144 -0.187859 6.254441 -6.240572 -10.746992 0.023072 -23.910474 -24.873140 -6.180327 -9.390306 -74.526803 8.182584 0.000000 0.000000 0.000000 -3.364330 1.125058 5.754682 28.071852 15.093702 1.089576 22.700123 14.173942 4.863305 -8.462502 70.097023 -10.245934 0.000000 0.000000 0.000000 
22.750937 35.913990 3.215384 179.982301 -30.485101 179.554294 -1.486590 -3.095462 9.725290 3.787252 -11.416115 -21.893371 9.493532 3.910356 24.155563 -1.956061 3.667512 9.983085 0.000000 0.000000 0.000000 3.297344 -2.383173 7.986238 2.012910 4.865010 -10.805949 -4.833582 0.309927 14.461013 6.541610 4.006748 5.060904 0.000000 0.000000 0.000000 1.050785 -0.069053 -2.988131 2.559328 0.599536 -13.559428 -0.805078 -2.723382 8.832180 -0.007372 0.040053 -0.033101 -1.050902 -0.724415 9.107331 -1.163364 1.078023 16.690928 0.000000 0.000000 0.000000 0.694103 -0.212985 6.245695 -6.287648 -10.452974 0.134910 -23.862017 -23.403507 -7.278564 -10.570239 -76.843959 10.137744 0.000000 0.000000 0.000000 -3.412245 1.094637 5.702821 27.846092 14.712627 1.004552 23.373252 13.565862 4.722432 -8.519516 71.318752 -10.451760 0.000000 0.000000 0.000000 
22.737295 35.908878 2.985207 179.998407 -30.514820 179.679177 -1.735253 -3.066756 10.238880 3.729996 -10.887999 -21.186325 9.520508 3.893656 22.950735 -1.831025 3.718808 9.293944 0.000000 0.000000 0.000000 3.248844 -2.204117 8.390749 2.256451 4.819855 -10.654363 -4.717303 0.061614 13.950490 6.638355 3.517845 5.365330 0.000000 0.000000 0.000000 1.068709 -0.007823 -2.987365 2.540153 0.692644 -13.944720 -0.767792 -2.728316 8.826263 0.023688 0.058035 -0.034670 -1.037281 -0.686763 9.277777 -0.707555 1.065545 17.122053 0.000000 0.000000 0.000000 0.708985 -0.184660 6.350719 -6.376103 -10.102600 0.135045 -24.033525 -21.460420 -8.233542 -13.598436 -79.820999 14.237574 0.000000 0.000000 0.000000 -3.440252 1.060003 5.780833 27.403137 14.273261 0.856151 24.187201 12.765515 4.255269 -8.673877 73.337708 -10.844905 0.000000 0.000000 0.000000 
22.701914 35.903854 2.734860 -179.934872 -30.427393 179.731087 -2.041381 -2.869065 10.703467 4.063367 -10.679313 -20.454021 9.606148 4.100365 21.508100 -1.948380 3.601770 8.591257 0.000000 0.000000 0.000000 3.305934 -2.113386 8.807985 2.426939 4.791939 -10.512045 -4.852240 -0.289957 13.548048 7.107909 3.096307 5.490465 0.000000 0.000000 0.000000 1.100997 0.130986 -2.953850 2.573665 0.720436 -14.348469 -0.670031 -2.800378 8.857357 -0.014664 0.031903 -0.047662 -0.945482 -0.739665 9.434471 -0.128964 1.051900 17.564053 0.000000 0.000000 0.000000 0.762006 -0.241465 6.404647 -6.500688 -9.792270 0.410438 -24.215042 -18.871220 -9.078448 -20.372125 -83.220541 22.338381 0.000000 0.000000 0.000000 -3.416291 1.113297 5.778291 26.785381 13.667325 0.717991 25.315000 11.726600 3.660176 -9.706168 76.378584 -12.204138 0.000000 0.000000 0.000000 
22.638376 35.904728 2.495079 179.989910 -30.396640 179.725595 -2.433494 -2.641057 11.109854 4.344671 -10.678358 -19.550710 9.910782 3.800984 19.862028 -2.220430 3.350649 8.112252 0.000000 0.000000 0.000000 3.297483 -2.262921 9.230739 2.439788 4.769436 -10.328431 -4.976160 -0.531694 13.228606 7.407747 3.040496 5.508025 0.000000 0.000000 0.000000 1.096847 0.166166 -2.839696 2.537491 0.675310 -14.664812 -0.565556 -2.881488 8.934817 0.021954 0.005939 -0.047691 -0.772297 -0.811258 9.607608 0.516830 1.005203 18.045324 0.000000 0.000000 0.000000 0.912708 -0.335326 6.500177 -6.746626 -9.508828 0.697766 -24.590754 -15.818599 -9.620933 -42.672150 -86.468808 46.176406 0.000000 0.000000 0.000000 -3.340981 0.952765 5.880173 25.980371 13.071371 0.473017 26.780391 10.287132 3.026473 -11.589743 80.280220 -14.498022 0.000000 0.000000 0.000000 
22.561533 35.916412 2.288134 -179.907661 -30.104455 179.663195 -2.447060 -2.707544 11.564254 4.331067 -10.879702 -18.320733 10.087824 3.263139 17.770880 -2.181591 3.395312 8.322366 0.000000 0.000000 0.000000 3.529257 -2.274249 9.562052 2.351904 5.057987 -10.195424 -5.113162 -0.638826 13.015004 7.755690 2.972806 5.369692 0.000000 0.000000 0.000000 1.214901 0.208031 -2.762426 2.606035 0.693357 -14.898780 -0.371051 -2.912693 9.033755 -0.010295 0.027287 -0.031324 -0.540021 -0.893309 9.809591 1.201392 0.928070 18.471017 0.000000 0.000000 0.000000 1.116574 -0.427994 6.677299 -7.087627 -9.177290 0.867685 -25.175124 -12.211639 -9.926934 -108.738422 -87.193696 113.910173 0.000000 0.000000 0.000000 -3.212286 0.902971 5.947217 25.106382 12.345589 0.389872 28.535115 8.391930 2.520441 -19.633942 84.669907 -22.955354 0.000000 0.000000 0.000000 
22.472351 35.944248 2.129218 -179.851776 -29.700985 179.609414 -2.279909 -2.715930 11.848653 3.865325 -10.869215 -17.156788 10.188568 3.084707 15.998344 -1.737396 3.756572 8.784700 0.000000 0.000000 0.000000 3.669147 -2.177645 9.852847 2.186889 5.158939 -10.146953 -5.188996 -0.657319 12.876659 8.058825 2.941939 5.232593 0.000000 0.000000 0.000000 1.354613 0.279255 -2.664056 2.706770 0.736236 -15.092669 -0.198356 -2.939379 9.274771 -0.027328 0.051158 -0.049035 -0.311108 -0.956986 10.052618 1.930462 0.874915 18.848457 0.000000 0.000000 0.000000 1.259013 -0.499677 6.806928 -7.556901 -8.793296 1.211454 -26.030078 -8.004993 -9.870854 -142.832247 -85.221889 149.792032 0.000000 0.000000 0.000000 -3.111743 0.854371 6.035793 24.128270 11.560138 0.210001 30.328656 6.016607 2.225092 -79.823915 88.339638 -83.663199 0.000000 0.000000 0.000000 
22.372019 35.974949 2.027899 -179.928056 -29.399275 179.620643 -2.257036 -2.639422 12.042900 3.543853 -11.006221 -16.327576 10.269037 3.353205 14.728506 -1.515336 3.849889 9.052665 0.000000 0.000000 0.000000 3.757252 -2.105467 10.182602 1.953269 5.266231 -10.186258 -5.294167 -0.527913 12.736118 8.300795 2.853117 5.108364 0.000000 0.000000 0.000000 1.399650 0.309497 -2.496714 2.806356 0.774678 -15.256121 -0.062884 -2.986264 9.469386 -0.019743 0.054085 -0.056869 -0.113549 -1.002689 10.353691 2.473691 0.645067 19.187996 0.000000 0.000000 0.000000 1.484527 -0.543225 7.062067 -8.150157 -8.292047 1.603941 -27.221109 -3.332007 -9.414853 -152.555021 -83.346449 161.363574 0.000000 0.000000 0.000000 -2.948977 0.827110 6.237732 23.164476 10.737360 0.115876 31.966849 3.253538 1.978275 -158.877249 85.661753 -163.196688 0.000000 0.000000 0.000000 
